<svg xmlns="http://www.w3.org/2000/svg" viewBox="0 0 459.48 288.71">
	<defs>
		<style>.cls-1{opacity:0.40;}.cls-2{fill:#003770;}.cls-3{fill:#0082bc;}.cls-4{fill:#76b82a;}</style>
	</defs>
<title>sb_happy_people</title>
<g id="Laag_2" data-name="Laag 2">
	<g id="header">
<g class="cls-1"><circle class="cls-2" cx="222.3" cy="49.22" r="29.83"/>
<circle class="cls-3" cx="53.51" cy="147.25" r="23.92" transform="translate(-82.06 68.71) rotate(-39.94)"/>
<circle class="cls-4" cx="369.49" cy="145.73" r="23.92" transform="translate(26.15 345.42) rotate(-51.71)"/>
<path class="cls-3" d="M125.75,288.71h45.65C117.91,202.27,113.63,101.88,107,48.32,94.49,106,95.28,202.52,95.28,202.52S63.41,210.15,0,164C11.61,183.77,59.48,248.55,125.75,288.71Z"/>
<path class="cls-2" d="M211.37,288.71C226.68,158.09,306.23,57.69,343.51,0,285.38,45.13,207.36,141.5,207.36,141.5s-25.24-26.77-49-121.62c-5.48,32.88-22.93,165.41,29.24,268.82Z"/>
<path class="cls-4" d="M249.76,288.71c71.63-69.45,159-97.31,209.72-114.59-59-.48-144.94,25.74-144.94,25.74s-3-46.66,29.17-118.14c-20.19,18.34-99.42,113.14-115.8,207Z"/></g></g></g>
</svg>