<svg xmlns="http://www.w3.org/2000/svg" viewBox="0 0 115.06 82.26"><defs><style>.cls-1{fill:#fff;}</style></defs><title>Middel 3</title><g id="Laag_2" data-name="Laag 2"><g id="header"><path class="cls-1" d="M5.14,14.15v.1s-.08.08-.12.23a1,1,0,0,1-.11.33q-.23.2-.23,1A10.79,10.79,0,0,0,4.09,18a8.2,8.2,0,0,0-.16,2q.13,1.08,1.81,1.74a3.49,3.49,0,0,0,1.12.3,7.93,7.93,0,0,0,3-.46,6.56,6.56,0,0,1,.85-.16,4.66,4.66,0,0,0,1-.26,3.32,3.32,0,0,1,1.54-.23.66.66,0,0,1,.2.79q-.1.26-1.05.79a9.34,9.34,0,0,1-1.84.79,7.68,7.68,0,0,1-2.46.59,5.51,5.51,0,0,1-2.2-.13,5.38,5.38,0,0,1-2.33-1.3,4.4,4.4,0,0,1-1.35-2.05,15.18,15.18,0,0,1-.11-1.77,4.84,4.84,0,0,1,.08-1.31q.1-.07.08-.33a3.32,3.32,0,0,1,.23-1,2.27,2.27,0,0,0,.15-1.17A1.82,1.82,0,0,1,3,14.28a.64.64,0,0,0,.16-.57,1,1,0,0,1,.26-.77l.3-.49A11.68,11.68,0,0,1,4.24,11a12.44,12.44,0,0,1,.64-1.49V9.42a4.21,4.21,0,0,1,.36-.69,13.86,13.86,0,0,1,2.07-4.3Q10,.07,10.82,0a.92.92,0,0,1,.72.33A1.73,1.73,0,0,1,12,1q.23.79-.07.85A11.32,11.32,0,0,0,10.23,4,36.41,36.41,0,0,0,8.16,7.29L6.88,9.95q-.79,1.67-1.48,3.61A.81.81,0,0,0,5.14,14.15Z"/><path class="cls-1" d="M16.47,19.34l.13-.69a3.55,3.55,0,0,1,.26-1.08,42,42,0,0,0,1.58-4.63q0-.39.52-.43a.74.74,0,0,1,.59,0,2.07,2.07,0,0,1,.53.64q.49.49-.08,1.77a9.73,9.73,0,0,0-.71,2,12.11,12.11,0,0,0-.74,2.07,5.58,5.58,0,0,1-.44,1.31,4,4,0,0,1-.54,1.58q-.25.23-.72-.28a2,2,0,0,1-.54-1.17A1.72,1.72,0,0,1,16.47,19.34ZM20.8,4.89q.75-.52,1.48.62a1.75,1.75,0,0,1,.16,1,3.61,3.61,0,0,1-.72,1.13q-.89,1.18-1.77.43a1.13,1.13,0,0,1-.43-.82q0-.49,0-.52.26,0,.61-.57a1.64,1.64,0,0,0,.33-.89A.36.36,0,0,1,20.8,4.89Z"/><path class="cls-1" d="M25.2,11.29l.36-1.12a5.21,5.21,0,0,0,.61-1.43q.44-1.3.84-2.15Q28.18,4,28.64,2.69q.2-.3.43-.69a2.73,2.73,0,0,1,.62-.92,1.13,1.13,0,0,1,.67.1,1.3,1.3,0,0,1,.62.49.7.7,0,0,1,.11.62q-.1.3-1.3,2.82T28,9.26q-.62,1.61-1.12,3.05t-.66,1.87l-.16.72.82-.79q.39-.3,1.25-1.05a12.28,12.28,0,0,1,1.07-.89,9.94,9.94,0,0,1,1-.46,6.22,6.22,0,0,1,2.49-.56,2.37,2.37,0,0,1,2,1.38,3.07,3.07,0,0,1-.23,3.18,1.1,1.1,0,0,0-.53.75,7.77,7.77,0,0,1-1.67,2.2A12.22,12.22,0,0,1,30,20.45a11.67,11.67,0,0,1-1.92,1.07,6.92,6.92,0,0,1-.85.25,9,9,0,0,0-1.05.16,2.29,2.29,0,0,1-.8-.16,1.35,1.35,0,0,1-.34-.52.91.91,0,0,1-.33-.76q.39,0,.46-.13t.62-.13a4.92,4.92,0,0,0,2.3-.92,19.78,19.78,0,0,0,3.35-2.53A13,13,0,0,0,33,14.48,1.46,1.46,0,0,0,33,13.26q-.07-.33-1-.23a4,4,0,0,0-1.82.72,11.66,11.66,0,0,0-4.76,4.92l-.16.33q0,.13-.38.33a1.45,1.45,0,0,1-.64.2,1,1,0,0,1-.62-.72q-.46-.33-.46-.57a13.87,13.87,0,0,1,.46-1.89q.26-1.25.67-2.59a5.12,5.12,0,0,1,.57-1.48A2,2,0,0,0,25.2,11.29Z"/><path class="cls-1" d="M39.25,15.82a10.06,10.06,0,0,0-.79,3.12,2.85,2.85,0,0,0,.28,1.46,1.14,1.14,0,0,0,1.05.44,3.72,3.72,0,0,0,1.26-.18,6.35,6.35,0,0,0,1.41-.87l1.12-.66a.36.36,0,0,0,.26-.16.74.74,0,0,1,.69.1.68.68,0,0,1,.39.59,2.67,2.67,0,0,1-.59.85q-.53.59-.79.62a4.73,4.73,0,0,0-.49.26h0a.79.79,0,0,1-.59.39h-.26q-.13.26-.87.53a4.18,4.18,0,0,1-1.4.26,3,3,0,0,1-2.38-1.1,3.83,3.83,0,0,1-.87-2.74,11.9,11.9,0,0,1,1.61-5.19Q40.43,9.65,43,9.65A3.45,3.45,0,0,1,44.4,10a2.38,2.38,0,0,1,1.38,1.58,4.2,4.2,0,0,1-.07,1.67A5.94,5.94,0,0,1,43,16.74a2.43,2.43,0,0,1-1.31.33,2.53,2.53,0,0,1-2.23-1Zm1.38-1.51a1.19,1.19,0,0,0,.23.75.72.72,0,0,0,.59.3,2.09,2.09,0,0,0,1.71-1A4.47,4.47,0,0,0,44,12.51q.15-.89-.21-1.15-.79-.39-2.23.89a9.09,9.09,0,0,0-1.31,1.44l-.43.69a1.82,1.82,0,0,1,.52-.11C40.54,14.25,40.62,14.27,40.62,14.31Z"/><path class="cls-1" d="M54.08,11.72a4.9,4.9,0,0,1,2.38-1.12,1.17,1.17,0,0,1,1.13.62,1.55,1.55,0,0,1-.07,1.87,1.94,1.94,0,0,1-.75.56,2,2,0,0,1-.66.2.81.81,0,0,1-.49-.3,1.05,1.05,0,0,1-.33-.49q0-.16-.92.57t-1.21,1A32.61,32.61,0,0,0,50.5,19.4a8.42,8.42,0,0,0-.39,1q-.36,1-.56,1.08a1.12,1.12,0,0,1-.62-.07q-1.67-.52-.13-2.76.23-.46.89-2.38t.75-2.15a1.38,1.38,0,0,0-.07-.79.56.56,0,0,0-.53-.3,1.9,1.9,0,0,1-.46,0q-.26,0-.26-.69a1.42,1.42,0,0,1,.75-1.05q1.18-.62,1.87,0,.43.3.43,2.17Q53.88,11.92,54.08,11.72Z"/><path class="cls-1" d="M65.77,10.44a3.3,3.3,0,0,1,.89.36,2.32,2.32,0,0,1,.69.3,4.06,4.06,0,0,1,1.21,2.76q.33,1.12,0,1.44l-.18.23s0,.05,0,.1a1.07,1.07,0,0,1-.16.46,5,5,0,0,0-.33,2.76,1.14,1.14,0,0,0,.94.85,1.78,1.78,0,0,0,1.43-.59q1-.72,1-.43a.46.46,0,0,0,.31.16.22.22,0,0,1,.21.13q.13.26-.2.82-.49.49-.49.66l-.49.46a2.82,2.82,0,0,1-1.49.36,2.33,2.33,0,0,1-1.38-.34,3.88,3.88,0,0,1-.9-1,3.75,3.75,0,0,1-.56-1.12l-.16-.33-1,.62q-.3.3-.79.71a5.62,5.62,0,0,0-.64.59.44.44,0,0,1-.34.18h-.33q0,.23-.64.51a2.89,2.89,0,0,1-1.13.28A1.6,1.6,0,0,1,60.05,21,1.87,1.87,0,0,1,59.23,20a5.5,5.5,0,0,1,.69-3.12A17.57,17.57,0,0,1,62.27,13a7,7,0,0,1,2.61-2.23A3.29,3.29,0,0,1,65.77,10.44Zm.89,2.13c-.09-.24-.2-.37-.33-.39q-1.12-.2-3.68,3.48-1.81,2.59-1.81,3.64l.16.33a5.57,5.57,0,0,0,1.84-1,10.35,10.35,0,0,0,1.87-1.53l1-1a4.66,4.66,0,0,0,1-1.89A2.18,2.18,0,0,0,66.65,12.57Z"/><path class="cls-1" d="M76.7,20.29l.56,0q.46-.2-.49,2.3l-.34.57-.28.46-.2.28c-.11.17-.2.26-.26.26a1.91,1.91,0,0,1-1.46-.8,3,3,0,0,1-.18-2q.1-.3.2-.72a2.31,2.31,0,0,1,.33-1.05.2.2,0,0,0,0-.3,7.56,7.56,0,0,1,.59-1.94q-.2-.26.16-.57t.25-.48q-.12-.16.11-.62l.54-1.05a7,7,0,0,0,.38-.79,6.29,6.29,0,0,1,.54-1.35q.57-1.25.74-1.54.26-.13-.21-.21a13.78,13.78,0,0,0-1.89-.08,4.27,4.27,0,0,1-2-.36q-.79-.85.49-.92L78.53,9l.1-.56a7.17,7.17,0,0,0,1-2.23,4.16,4.16,0,0,0,.66-1.67A15.42,15.42,0,0,0,81,3.2a4.79,4.79,0,0,1,.26-.51,1.09,1.09,0,0,1,.51-.3,1.76,1.76,0,0,1,.64.33q1.25.79.62,1.35a9.51,9.51,0,0,0-.39,1.05,3.92,3.92,0,0,0-.85,1.77Q81.13,8.34,81,8.34q0,.33.49.33a13.35,13.35,0,0,0,1.41-.13l.43-.1a1.13,1.13,0,0,1,.59.1,1.84,1.84,0,0,1,.31.8.57.57,0,0,1-.28.61l-.69.2q-.53.13-3,.36-.85,1.64-1,2a1.53,1.53,0,0,0-.15.38l-1.38,2.89c-.09,0-.13.07-.13.2s.08.44,0,.52a2.62,2.62,0,0,0-.46.53q.16.16-.16.75a5,5,0,0,1-.46,1.67,6.84,6.84,0,0,0,.07.75C76.55,20.27,76.61,20.31,76.7,20.29Z"/><path class="cls-1" d="M83.69,19.34l.13-.69a3.55,3.55,0,0,1,.26-1.08,42,42,0,0,0,1.58-4.63q0-.39.52-.43a.74.74,0,0,1,.59,0,2.07,2.07,0,0,1,.53.64q.49.49-.08,1.77a9.73,9.73,0,0,0-.71,2,12.11,12.11,0,0,0-.74,2.07,5.58,5.58,0,0,1-.44,1.31,4,4,0,0,1-.54,1.58q-.25.23-.72-.28a2,2,0,0,1-.54-1.17A1.72,1.72,0,0,1,83.69,19.34ZM88,4.89q.75-.52,1.48.62a1.75,1.75,0,0,1,.16,1,3.61,3.61,0,0,1-.72,1.13q-.89,1.18-1.77.43a1.13,1.13,0,0,1-.43-.82q0-.49,0-.52.26,0,.61-.57a1.64,1.64,0,0,0,.33-.89A.36.36,0,0,1,88,4.89Z"/><path class="cls-1" d="M98.23,13.13a3.29,3.29,0,0,1,1.08-.36,2,2,0,0,1,1,.59,2.68,2.68,0,0,1,.8,1,2.84,2.84,0,0,0,.11.77,6.47,6.47,0,0,1,.08,1.59q0,1.18-.26,1.31a.14.14,0,0,0,.16.16v.16q-.36,0,0,.61a3.66,3.66,0,0,0,.61.9.69.69,0,0,1,.23.64q-.07.34-.59.48a1.84,1.84,0,0,1-1.81-1.21,7.93,7.93,0,0,1-.26-1.59,2.59,2.59,0,0,1,0-1.1,2.72,2.72,0,0,0,.1-1.07q0-.87-.3-1t-.8.21A50.19,50.19,0,0,0,92.88,19a9.1,9.1,0,0,0-1,1.44.3.3,0,0,1-.26.16q-.33.16-1-.36a7.12,7.12,0,0,1-.75-.89,7.64,7.64,0,0,1,.21-1.21A6.74,6.74,0,0,1,90.45,17c.09,0,.2-.14.33-.43a5,5,0,0,1,.33-.62A16.44,16.44,0,0,1,92,13.66,6.35,6.35,0,0,0,92.84,11a.26.26,0,0,1,.07-.25.3.3,0,0,1,.23-.12q.59-.56,1.23.3a2.27,2.27,0,0,1,.52,1.69A7,7,0,0,1,93.83,15a8.13,8.13,0,0,0-.46,1.25L95.21,15A8.87,8.87,0,0,1,96.62,14,6.07,6.07,0,0,1,98.23,13.13Z"/><path class="cls-1" d="M114.21,15.2a1,1,0,0,0-.64.23c-.25.18-.38.34-.38.51s-.18.44-.53.84q0,.23-.52,2.46t-.71,3.13a14.81,14.81,0,0,1-.64,2,5.31,5.31,0,0,1-1,2.46,4,4,0,0,1-1.17,1.28,3.09,3.09,0,0,1-1.4.57,4.39,4.39,0,0,1-2.07-.54,4.94,4.94,0,0,1-1.23-1.46,2.57,2.57,0,0,1-.51-1.43q.07-.33.56-.08a2,2,0,0,1,.75.61,3.5,3.5,0,0,0,.92.79,1.58,1.58,0,0,0,1,.36q1.35-.2,2.33-2.49a35.79,35.79,0,0,0,1.1-4,8.65,8.65,0,0,0,.41-2.53l-2.13,1.15a5.24,5.24,0,0,1-3.18.26,1.75,1.75,0,0,1-.71-.85,2.2,2.2,0,0,1-.3-1.17,6.59,6.59,0,0,1,.9-1.92q.85-1.44,1-1.43t.15-.31A7.45,7.45,0,0,1,108,12q2.36-2.1,3.77-2.23l.66,0a4.37,4.37,0,0,0,.79.39,2.72,2.72,0,0,1,1.21,1.18,4.05,4.05,0,0,1,.59,1.77,5.31,5.31,0,0,1-.33,1.41Q114.47,15.23,114.21,15.2Zm-2.81-3.38a1,1,0,0,0-.25,0l-.26.08a1.13,1.13,0,0,0-.3.18l-.3.23-.33.28-.34.31-.38.36a4.88,4.88,0,0,1-.39.36q-3.12,2.82-2.86,4,.07.33.89.21a4.26,4.26,0,0,0,1.36-.39q.54-.28,1-.46l.64-.28a1.79,1.79,0,0,0,.89-.72,6.54,6.54,0,0,0,.46-1.21q.23-.79.53-.84a1.42,1.42,0,0,1,.72.11.62.62,0,0,0,.3-.69,1.94,1.94,0,0,0-1.12-1.48A.38.38,0,0,0,111.4,11.82Z"/><path class="cls-1" d="M13.48,42l-.16,1.74-.2,1.05h.52l.72.16q.3.36.53.36.52,0,.2.49a1.69,1.69,0,0,1-.39.39q-1.58,1-2.59,0a3,3,0,0,1-.53-3,16.68,16.68,0,0,0,.15-2.1q0-.69-.34-.69-.76,0-3.1,1.72a14.44,14.44,0,0,0-3.53,3.5q-1,1.25-1.53,1.3a1.18,1.18,0,0,1-.92-.28,1,1,0,0,1-.39-.57A3.75,3.75,0,0,1,2,45.21,57.83,57.83,0,0,1,4,38.61a27.89,27.89,0,0,1,1-3q.61-1.53,1-2.72l.82-2.28q.39-1.08.59-1.58.26-.69.46-1.31a.46.46,0,0,1,.53-.53q.66,0,1,.92a2.49,2.49,0,0,1-.16,1.92q-.48,1-1.61,4.19T6,38.48a5.77,5.77,0,0,1-.69,1.77,13.46,13.46,0,0,1-.41,1.46,15.07,15.07,0,0,0-.51,2A8.25,8.25,0,0,1,6,41.79Q7.83,40.25,8.26,40l1-.69c0-.11.09-.16.26-.16s.26-.07.26-.21.25-.27.75-.39a5.59,5.59,0,0,1,1.25-.18,1.26,1.26,0,0,1,.72.16,2.86,2.86,0,0,1,.59.72A2.79,2.79,0,0,1,13.48,42Z"/><path class="cls-1" d="M23.92,45.63V45a2.1,2.1,0,0,1-.72.89A5.59,5.59,0,0,1,21.69,47a4.21,4.21,0,0,1-1.81.75A1.69,1.69,0,0,1,18.57,47a2.25,2.25,0,0,1-.76-2.4,14.24,14.24,0,0,1,1.41-5.19q1.05-2.07,1.51-2.76,1.05-.36,1.21.66.39.62-.89,3.05-2,4.66-.89,5.09a1.14,1.14,0,0,0,1,0A5,5,0,0,0,22.88,44a10,10,0,0,0,1.64-2.71,9.29,9.29,0,0,0,.74-2.72,1.08,1.08,0,0,1,.56-1.25.94.94,0,0,1,.34-.31c.14-.08.25-.07.31,0L27,37q.1,0,.2.2a.67.67,0,0,0,.2.26q.76.62-.72,4a9,9,0,0,0-1.07,3.41,2.53,2.53,0,0,0,.94,2A1.24,1.24,0,0,1,27,48.2a.89.89,0,0,1-.72.61,1.3,1.3,0,0,1-1.08-.18A4.7,4.7,0,0,1,24,46.39,2.81,2.81,0,0,1,23.92,45.63Z"/><path class="cls-1" d="M45.19,47l-.72.16a1.66,1.66,0,0,1-1.07-.11,1.24,1.24,0,0,1-.8-.9,5.11,5.11,0,0,1-.2-2.79c0-.22.09-.46.13-.72a4.82,4.82,0,0,1,.16-1.05q0-.85-.1-.85-.26,0-1.74,1.71a18.11,18.11,0,0,0-2.92,4.07.78.78,0,0,1-.2.3q-.49.53-1.12-.56a1.17,1.17,0,0,1-.13-.79q0-.13,1.67-5.32,0-.23-1.64,1.18-.13.16-.92,1a39.42,39.42,0,0,0-3.1,3.63,10.71,10.71,0,0,1-1.38,1.69q-.34.26-.67-.11a1.09,1.09,0,0,1-.33-.67c0-.2-.06-.3-.16-.3s.12-.88.76-2.25a28.4,28.4,0,0,1,1.64-3.13.54.54,0,0,0,.2-.46A4.15,4.15,0,0,1,33,40a3.06,3.06,0,0,0,.46-1.74.3.3,0,0,0-.21-.1.37.37,0,0,0-.2,0l-.25.11a3.76,3.76,0,0,0-.62.23q-.76.53-1,.48t-.54-.72q-.28-.67,0-.92a2.84,2.84,0,0,1,.61-.39q.31-.15.67-.36a2.31,2.31,0,0,1,.66-.28q1.77-.53,2.33.75,1,1.35-.33,3.38-.13.26-.07.33s.19-.09.44-.41.46-.48.64-.48.16-.1.16-.3l.33-.3a15.41,15.41,0,0,0,1.41-1.05,1.16,1.16,0,0,1,.66-.26,1,1,0,0,1,1.21.48,3.24,3.24,0,0,1,.49,1.89l-.69,1.77,1.18-1.44a6.69,6.69,0,0,1,.79-.79c0-.2.13-.3.26-.3h.07a.12.12,0,0,0,.13-.13l.2-.16c.26-.15.4-.26.43-.33a1.31,1.31,0,0,1,1.81.75,3.3,3.3,0,0,1,.3,1.58q-.1.59-.3,2.17a2.18,2.18,0,0,0-.16.9,3.83,3.83,0,0,0,0,.67.23.23,0,0,0,.26.26,6.07,6.07,0,0,0,1.3-.48,4.59,4.59,0,0,0,1.23-.79,1.3,1.3,0,0,1,.8-.43A.44.44,0,0,1,48,44q.1.2-.51,1.05t-.84.85s-.12.07-.23.2Q45.58,47,45.19,47Z"/><path class="cls-1" d="M59.68,44.91a1.17,1.17,0,0,1,1-.08.73.73,0,0,1,.48.76q0,.57-.8,1.17a2.61,2.61,0,0,1-1.53.59q-1,0-1.9-3.51-2.69,2.63-2.76,2.72a3.54,3.54,0,0,1-1.81,1.18,2.49,2.49,0,0,1-1.08,0q-.66-.1-.66-.25a.4.4,0,0,0,0-.16l-.15,0a1.56,1.56,0,0,0-.59-.39,1.69,1.69,0,0,1-.3-1,8.07,8.07,0,0,1,.3-1.74,9.69,9.69,0,0,1,2-4.15,12.08,12.08,0,0,1,3.27-3.43,1.83,1.83,0,0,1,2.36-.2,4.79,4.79,0,0,1,1.77,2.17,9.25,9.25,0,0,1,0,2.49A10.38,10.38,0,0,0,58.81,44a1.21,1.21,0,0,0,.15.89Q59.17,45.18,59.68,44.91Zm-8.42.43q0,1.15,1.18.46a10.42,10.42,0,0,0,1.94-1.61,20.93,20.93,0,0,0,2-2.35,6.27,6.27,0,0,0,1.15-2.51,3.24,3.24,0,0,0-.43-.77q-.3-.41-.52-.44-1,0-3.09,2.86l-1.08,1.61a9.2,9.2,0,0,0-.69,1.4A5.92,5.92,0,0,0,51.26,45.34Z"/><path class="cls-1" d="M66.95,36.35a.76.76,0,0,1,.51.3,1.85,1.85,0,0,1,.41.69,3.85,3.85,0,0,1-.92,2.27,7.64,7.64,0,0,0-1.12,2.69,5.14,5.14,0,0,0-.26.61q-.23.57-.33.77l-.16.72,2.2-2.26a12,12,0,0,1,3.35-2.68q1-.38,1.61.8a4.12,4.12,0,0,1,.43,1,10.87,10.87,0,0,1,0,1.79v2l1.41-.49a5.1,5.1,0,0,1,1.67-.39,3.25,3.25,0,0,1-1,1.82,2.51,2.51,0,0,1-1.77.94,1.54,1.54,0,0,1-1-.43,2.32,2.32,0,0,1-.71-.94,8.55,8.55,0,0,1-.2-2.38V42q0-.49-.33-.3a26.42,26.42,0,0,0-3.07,3q-2.51,2.63-3.43,2.63a1,1,0,0,1-.62-.36,1.34,1.34,0,0,1-.41-.62,8.84,8.84,0,0,1,0-1.21q0-1.67,1.87-5.74L66.16,37a3,3,0,0,1,.46-.66Z"/><path class="cls-1" d="M1.4,75.08l.23-1.18a43.46,43.46,0,0,1,1.28-4.2Q4,66.39,4.81,64.35a7,7,0,0,0,.69-2.59c0-.11.12-.3.36-.56s.61-.23,1.05.1a1.35,1.35,0,0,1,.28.34,1.63,1.63,0,0,1,.23.49,4.52,4.52,0,0,1,0,.94,3.55,3.55,0,0,1-.56,1.61q2.69-1.12,4.12-.31a3,3,0,0,1,1.43,2.81,3.88,3.88,0,0,1-.34,1.43,3.23,3.23,0,0,1-.67,1.13q-.2,0-.52.69a5.22,5.22,0,0,1-1.41,1.1q-1,.57-1.38.44c-.11,0-.16.07-.16.2s-.41.33-1.23.54A8.29,8.29,0,0,1,4.88,73,1.3,1.3,0,0,1,4,72.75a.71.71,0,0,0-.23.51,5.19,5.19,0,0,1-.33,1.23q-.33,1-.52,1-.2.16,0,.36a2,2,0,0,1-.2,1,3.77,3.77,0,0,1-.33,1.58,2.65,2.65,0,0,1-.11.77q-.12.38-.25.38t-.21.92a2.53,2.53,0,0,1-.31,1.31.83.83,0,0,1-.69.46l-.15,0a.31.31,0,0,1-.18,0q-.72-.16-.36-1.94a9.13,9.13,0,0,0,.36-1.9l.16-1.05A2.93,2.93,0,0,0,1,75.81.94.94,0,0,1,1.4,75.08Zm8.7-8.9q-.46-.62-1.71-.2a5.34,5.34,0,0,0-3.22,3q-1,2.07-.39,2.3a8,8,0,0,0,2-.51A7,7,0,0,0,9,69.6a4.14,4.14,0,0,0,1.15-1.54A2.21,2.21,0,0,0,10.1,66.19Z"/><path class="cls-1" d="M15.74,67q2.2-3.64,5.12-4.33a3,3,0,0,1,1-.16,1.45,1.45,0,0,1,.77.53,2.68,2.68,0,0,1,1.1.79,2.74,2.74,0,0,1,.44,1.35,8,8,0,0,1-1.71,5.38,9.21,9.21,0,0,1-1.41,1.66,12.53,12.53,0,0,1-1.74,1.23,5.35,5.35,0,0,1-2.56,1,2.09,2.09,0,0,1-1.28-.62,2.86,2.86,0,0,1-1.05-2.43l.07-.75c-.11-.11-.14-.2-.08-.26l.11-.13c.13,0,.18-.1.13-.31a2.79,2.79,0,0,1,.26-1.21A8,8,0,0,1,15.74,67Zm6.33.23a4,4,0,0,0,.18-1.43q0-.9-.28-1-.92-.53-2.17.49a14.47,14.47,0,0,0-3.25,5q-.69,1.64.1,2.3,1,.82,3.25-1.64A11.5,11.5,0,0,0,22.08,67.24Z"/><path class="cls-1" d="M27.87,72.44a6.48,6.48,0,0,1-.18-1.66,10.92,10.92,0,0,1,.23-2.13q.59-2.79.89-3.64.1-.36-.31-.48a3.26,3.26,0,0,0-1-.1,1.65,1.65,0,0,1-.66,0l-.13-.2a.65.65,0,0,0-.12-.34.36.36,0,0,1,.07-.43.62.62,0,0,1,.38-.28l.67-.1q.48-.07.77-.13a2.18,2.18,0,0,0,1.38-.72q.43-1.08,1.08-2.45a10.17,10.17,0,0,1,.89-1.62,1.45,1.45,0,0,1,.82-.25q.26,0,.59.57a.69.69,0,0,1,.23.75,27.86,27.86,0,0,1-1.58,3.25,4.13,4.13,0,0,0,1.05,0,5.86,5.86,0,0,1,1.81-.1q1.41,0,1.51,1.21.07.36-.13.43a24.51,24.51,0,0,1-2.56.15,8.74,8.74,0,0,0-2.4.21,10.14,10.14,0,0,0-1.12,3.15,17.3,17.3,0,0,0-.43,3.28,3.38,3.38,0,0,0,.39,2q.3.3,1.13.13a3.41,3.41,0,0,0,1.54-.75q.71-.59,1.12-.28t-.25,1.23A3.9,3.9,0,0,1,32,74.56a2.5,2.5,0,0,1-1.77.28,4.13,4.13,0,0,1-1.59-.94A4.41,4.41,0,0,1,27.87,72.44Z"/><path class="cls-1" d="M39.38,68.22a10.06,10.06,0,0,0-.79,3.12,2.85,2.85,0,0,0,.28,1.46,1.14,1.14,0,0,0,1.05.44,3.72,3.72,0,0,0,1.26-.18,6.35,6.35,0,0,0,1.41-.87l1.12-.66a.36.36,0,0,0,.26-.16.74.74,0,0,1,.69.1.68.68,0,0,1,.39.59,2.67,2.67,0,0,1-.59.85q-.53.59-.79.62a4.73,4.73,0,0,0-.49.26h0a.79.79,0,0,1-.59.39h-.26q-.13.26-.87.53a4.18,4.18,0,0,1-1.4.26,3,3,0,0,1-2.38-1.1,3.83,3.83,0,0,1-.87-2.74A11.9,11.9,0,0,1,38.46,66q2.1-3.91,4.66-3.91a3.45,3.45,0,0,1,1.41.36A2.38,2.38,0,0,1,45.91,64a4.2,4.2,0,0,1-.07,1.67,5.94,5.94,0,0,1-2.69,3.48,2.43,2.43,0,0,1-1.31.33,2.53,2.53,0,0,1-2.23-1Zm1.38-1.51a1.19,1.19,0,0,0,.23.75.72.72,0,0,0,.59.3,2.09,2.09,0,0,0,1.71-1,4.47,4.47,0,0,0,.87-1.87q.15-.89-.21-1.15-.79-.39-2.23.89a9.09,9.09,0,0,0-1.31,1.44l-.43.69a1.82,1.82,0,0,1,.52-.11C40.67,66.65,40.75,66.67,40.75,66.72Z"/><path class="cls-1" d="M51.85,62.55a.76.76,0,0,1,.51.3,1.85,1.85,0,0,1,.41.69,3.85,3.85,0,0,1-.92,2.27,7.64,7.64,0,0,0-1.12,2.69,5.14,5.14,0,0,0-.26.61q-.23.57-.33.77l-.16.72,2.2-2.26a12,12,0,0,1,3.35-2.68q1-.38,1.61.8a4.12,4.12,0,0,1,.43,1,10.87,10.87,0,0,1,0,1.79v2L59,70.75a5.1,5.1,0,0,1,1.67-.39,3.25,3.25,0,0,1-1,1.82,2.51,2.51,0,0,1-1.77.94,1.54,1.54,0,0,1-1-.43,2.32,2.32,0,0,1-.71-.94,8.55,8.55,0,0,1-.2-2.38V68.16q0-.49-.33-.3a26.42,26.42,0,0,0-3.07,3q-2.51,2.63-3.43,2.63a1,1,0,0,1-.62-.36,1.34,1.34,0,0,1-.41-.62,8.84,8.84,0,0,1,0-1.21q0-1.67,1.87-5.74l1.08-2.3a3,3,0,0,1,.46-.66Z"/><path class="cls-1" d="M63.45,62.91a.67.67,0,0,1-.15-.41,1.15,1.15,0,0,1,.28-.59q.28-.38.49-.36t1,0a3.71,3.71,0,0,0,1-.11.59.59,0,0,0,.36-.36,12.42,12.42,0,0,1,.82-1.77,8.73,8.73,0,0,1,1.58-2.4q.59-.49,1.41.2a1.89,1.89,0,0,1,.28.51,1.53,1.53,0,0,1-.21.57q-.23.46-.67,1.2T69,60.45q-.56.79-.16.85a8.58,8.58,0,0,0,2-.18q1.56-.25,1.72.9.1.79-.16,1a3.89,3.89,0,0,1-1.51.16,14.53,14.53,0,0,1-2,.18,5.74,5.74,0,0,0-1.13.08,1,1,0,0,0-.62.62.91.91,0,0,0-.23.36q-.2.39-.82,1.54a27.59,27.59,0,0,0-1.17,4.41,5.39,5.39,0,0,0-.11,2.1q.16.31,1.15.41a5.77,5.77,0,0,0,3.61-1l.89-.53q.33-.52.69.33a2.4,2.4,0,0,1,0,.56,1.63,1.63,0,0,1-.36.56,3.52,3.52,0,0,1-1,.72A6.46,6.46,0,0,1,65,74.66,2,2,0,0,1,63.91,74a3.21,3.21,0,0,1-.71-1.13L63,72.56q-.2-.16-.13-1.69a11.86,11.86,0,0,1,.23-2.17q.16-.64.59-1.79t.53-1.51l.89-1.9-1.31-.36A.56.56,0,0,1,63.45,62.91Z"/><path class="cls-1" d="M73.38,73.12l-.16-.66a.48.48,0,0,1-.26-.28,1.07,1.07,0,0,1,.1-.51q.43-.75,1.51-3.43t1.21-3.17a1,1,0,0,1,.33-.66q.56-.43,1.05.56a1.79,1.79,0,0,1,.23.85,10.15,10.15,0,0,1-.72,2.3q-.82,2-1.59,3.54t-1,1.58a.46.46,0,0,1-.2,0Zm4.2-15.75a1.75,1.75,0,0,1,.79.16,5.44,5.44,0,0,0,.84,1.25,2.24,2.24,0,0,1,.61,1,1.68,1.68,0,0,1-.15.92q-.15.16-.87.16a1.87,1.87,0,0,1-1.36-.67,2,2,0,0,1-.64-1.4,2.15,2.15,0,0,1,.39-.75A3.54,3.54,0,0,0,77.58,57.36Z"/><path class="cls-1" d="M79.3,73.3a.61.61,0,0,1-.21-.43.63.63,0,0,0-.16-.41q-.56-.56,1.77-4.83a4.28,4.28,0,0,0,.51-.69,2.63,2.63,0,0,1,.41-.56.37.37,0,0,1,.1-.25.3.3,0,0,1,.23-.11v-.2q0-.3,1.08-1.44,2.89-3,4.46-1.77.2.26,2.72,2.49l-.59,1.64a4.53,4.53,0,0,0,.43,4,1.75,1.75,0,0,0,.66.69,2.33,2.33,0,0,0,1,.39q.72.13.72.75a.69.69,0,0,1-.59.76q-2.2.3-3.74-2.69a3.25,3.25,0,0,1-.59-1.44,9.87,9.87,0,0,1-1.05,1.25q-4.63,4.66-6.83,3.25A1.64,1.64,0,0,0,79.3,73.3Zm8.52-7.76q-.59-1.31-1.31-1.31t-2.2,1.72A21.41,21.41,0,0,0,81.62,70l-.82,1.87q0,.36.84,0a7.1,7.1,0,0,0,1.4-.87,24.17,24.17,0,0,0,4.07-4.23Z"/><path class="cls-1" d="M100.85,54.59a2.41,2.41,0,0,1,.2.8.87.87,0,0,1-.15.51q-.15.21-.67,1.2a16.82,16.82,0,0,1-.72,2.23,9.8,9.8,0,0,0-.38.92q-.08.26-.48,1.28t-.9,2.69A12.37,12.37,0,0,1,97,66.3a7.91,7.91,0,0,0-.54,2.08A10,10,0,0,0,96,70.13a13.21,13.21,0,0,0-.26,1.3,5.36,5.36,0,0,1-.36,1.36q-.1,1.08-1.08.56a1.1,1.1,0,0,1-.66-1A9.11,9.11,0,0,1,94,70.29,6.34,6.34,0,0,1,94.62,68q1.35-4.56,1.44-5,.3-.85.82-2.25t.71-1.92q.18-.52.56-1.87a8.21,8.21,0,0,1,.64-1.77q.49-.76.66-1.08c0-.13.16-.19.41-.16a.82.82,0,0,1,.57.26Q100.66,54.08,100.85,54.59Z"/></g></g></svg>